<svg version="1" xmlns="http://www.w3.org/2000/svg" width="768" height="768" viewBox="0 0 576.000000 576.000000"><path d="M477 33.9c-3 .9-6.6 2.3-8 3-3.6 1.9-45 43.2-46.1 46-.6 1.5-.6 3.5.1 5.5 1.4 4.2 93.4 96.2 97.2 97.1 1.6.4 4 0 6.1-1 2-.9 12.3-10.5 22.9-21.3 16.4-16.7 20-20.8 22.9-26.7 3.1-6.4 3.4-7.7 3.4-16.5 0-8.7-.3-10.1-3.3-16.5s-5.9-9.6-32-35.6C521.1 48.7 510 38.5 507 37c-10.2-5.1-20.4-6.2-30-3.1zM36.1 97.6c-16.9 4.5-30.1 18-34.6 35.1-2.3 8.6-2.3 366 0 374.6 4.5 17.3 17.8 30.7 35 35.2 5.2 1.3 27.7 1.5 187.5 1.5 198 0 186.5.3 198.2-5.6 11.6-5.9 22.1-19.6 24.7-32.6.8-3.7 1.1-31.4.9-89l-.3-83.6-2.4-2.6c-3-3.1-8.3-5-11.9-4.1-3 .7-45.4 42.2-47.8 46.7-1.2 2.2-1.4 11.6-1.4 54.8v52H64V160h116c98.6 0 116.5-.2 118.8-1.4 4.5-2.4 46-44.8 46.7-47.8.9-3.6-1-8.9-4.1-11.9l-2.6-2.4-148.6-.2c-127.4-.2-149.5 0-154.1 1.3z"/><path d="M392 113.1c-1.4.5-51.8 50.4-112.1 110.7L170.3 333.5l-5.3 48.3c-5.9 54.2-5.9 53.5.9 60.3 6.8 6.8 6.1 6.8 60.3.9l48.3-5.3 109.7-109.6c64.3-64.2 110.1-110.8 110.8-112.5.7-2 .7-3.8 0-6-1.2-3.9-92.2-95-96.3-96.6-3.3-1.2-3.4-1.2-6.7.1z"/></svg>